<?xml version="1.0" encoding="UTF-8"?>
<svg id="Layer_1" xmlns="http://www.w3.org/2000/svg" version="1.1" viewBox="0 0 96 76">
  <!-- Generator: Adobe Illustrator 29.0.0, SVG Export Plug-In . SVG Version: 2.1.0 Build 186)  -->
  <defs>
    <style>
      .st0 {
        fill: #101214;
      }
    </style>
  </defs>
  <path id="Combined-Shape" class="st0" d="M63.2,0v30.6c1.2-2.3,2.8-4.3,4.9-5.8,0-.2-.2-.5-.2-.8,0-1.1.9-2,2-2s1.2.3,1.6.8c2-.8,4.1-1.3,6.4-1.3,8.9,0,16.2,7.1,16.5,16h1.5v1h-1.5c-.3,8.9-7.5,16-16.5,16s-4.4-.5-6.4-1.3c-.4.5-.9.8-1.6.8-1.1,0-2-.9-2-2s0-.5.2-.8c-2.1-1.5-3.7-3.5-4.9-5.8v30.6s-1,0-1,0v-30.5c-.9,1.3-2,2.5-3.3,3.5,0,.2,0,.4,0,.6,0,1.1-.9,2-2,2s-1.2-.3-1.6-.7c-1.4.5-2.9.7-4.4.7-7.3,0-13.2-5.8-13.5-13H8s2.8,2.8,2.8,2.8v2.1s-2.1,0-2.1,0l-3.3-3.3-3.3,3.3H0s0-2.1,0-2.1l3.3-3.3-3.3-3.3v-2.1s2.1,0,2.1,0l3.3,3.3,3.3-3.3h2.1s0,2.1,0,2.1l-2.8,2.8h29.5c.3-7.2,6.2-13,13.5-13s3.1.3,4.4.7c.4-.5.9-.7,1.6-.7,1.1,0,2,.9,2,2s0,.4,0,.6c1.3.9,2.4,2.1,3.3,3.5V0s1,0,1,0ZM91.5,38.5h-27c.3,7.2,6.2,13,13.5,13s13.2-5.8,13.5-13ZM61.5,38.5h-21c.3,5.6,4.9,10,10.5,10s10.2-4.4,10.5-10ZM51,27.5c-5.6,0-10.2,4.4-10.5,10h21c-.3-5.6-4.9-10-10.5-10ZM78,24.5c-7.3,0-13.2,5.8-13.5,13h27c-.3-7.2-6.2-13-13.5-13Z"/>
</svg>